<svg xmlns="http://www.w3.org/2000/svg" viewBox="0 0 720 231" width="720" height="231">
<style>
  svg { --ink: #1a1a1a; --muted: #6b6b68; --accent: #7c6553; --rule: rgba(26, 26, 26, 0.13); }
  @media (prefers-color-scheme: dark) {
    svg { --ink: #e8e8e5; --muted: #96968f; --accent: #b49780; --rule: rgba(232, 232, 229, 0.16); }
  }
  text { font-family: system-ui, -apple-system, "Segoe UI", Roboto, "Helvetica Neue", Arial, "Noto Sans", "Liberation Sans", sans-serif; font-size: 15px; fill: var(--muted); font-variant-numeric: tabular-nums; }
  .ink { fill: var(--ink); }
  .line { fill: none; stroke: var(--ink); stroke-width: 2; stroke-linejoin: round; stroke-linecap: round; }
  .shape { fill: var(--ink); fill-opacity: 0.08; stroke: var(--ink); stroke-width: 2; stroke-linejoin: round; }
  .guide { fill: none; stroke: var(--rule); stroke-width: 1.25; }
  .axis { fill: none; stroke: var(--muted); stroke-width: 1.25; }
  .rest { fill: none; stroke: var(--muted); stroke-width: 1.25; stroke-dasharray: 3 4; }
  .click { fill: var(--accent); }
  .accent { fill: none; stroke: var(--accent); stroke-width: 3; stroke-linecap: round; }
  .faint { fill: none; stroke: var(--accent); stroke-width: 1.5; stroke-dasharray: 4 5; }
</style>
<line class="guide" x1="68" x2="716" y1="16" y2="16"/>
<text x="60" y="21.25" text-anchor="end">1.25×</text>
<line class="guide" x1="68" x2="716" y1="76" y2="76"/>
<text x="60" y="81.25" text-anchor="end">1.15×</text>
<line class="guide" x1="68" x2="716" y1="166" y2="166"/>
<text x="60" y="171.25" text-anchor="end">1×</text>
<path class="click" d="M76 166 L76 166 L76.31 16 L76.78 26.84 L77.4 40.08 L77.87 49.18 L78.5 60.3 L79.12 70.36 L79.74 79.46 L80.37 87.69 L80.99 95.15 L81.62 101.89 L82.4 109.42 L83.18 116.07 L83.96 121.94 L84.74 127.11 L85.52 131.68 L86.45 136.46 L87.39 140.58 L88.32 144.12 L89.26 147.17 L90.35 150.19 L91.44 152.73 L93.78 156.88 L96.44 160.04 L99.56 162.38 L103.14 163.96 L107.67 165.01 L113.44 165.61 L113.44 166 Z"/>
<text x="76" y="224.45" text-anchor="middle">1</text>
<path class="click" d="M232 166 L232 166 L232.31 76 L232.78 82.5 L233.4 90.45 L233.87 95.91 L234.5 102.58 L235.12 108.61 L235.74 114.07 L236.37 119.02 L236.99 123.49 L237.62 127.53 L238.4 132.05 L239.18 136.04 L239.96 139.56 L241.52 145.41 L243.39 150.75 L245.26 154.7 L247.44 158.04 L249.78 160.53 L252.44 162.42 L255.56 163.83 L259.14 164.78 L269.44 165.77 L269.44 166 Z"/>
<text x="232" y="224.45" text-anchor="middle">2</text>
<path class="click" d="M388 166 L388 166 L388.31 76 L388.78 82.5 L389.4 90.45 L389.87 95.91 L390.5 102.58 L391.12 108.61 L391.74 114.07 L392.37 119.02 L392.99 123.49 L393.62 127.53 L394.4 132.05 L395.18 136.04 L395.96 139.56 L397.52 145.41 L399.39 150.75 L401.26 154.7 L403.44 158.04 L405.78 160.53 L408.44 162.42 L411.56 163.83 L415.14 164.78 L425.44 165.77 L425.44 166 Z"/>
<text x="388" y="224.45" text-anchor="middle">3</text>
<path class="click" d="M544 166 L544 166 L544.31 76 L544.78 82.5 L545.4 90.45 L545.87 95.91 L546.5 102.58 L547.12 108.61 L547.74 114.07 L548.37 119.02 L548.99 123.49 L549.62 127.53 L550.4 132.05 L551.18 136.04 L551.96 139.56 L553.52 145.41 L555.39 150.75 L557.26 154.7 L559.44 158.04 L561.78 160.53 L564.44 162.42 L567.56 163.83 L571.14 164.78 L581.44 165.77 L581.44 166 Z"/>
<text x="544" y="224.45" text-anchor="middle">4</text>
<path class="line" d="M76 166 L76.31 145.28 L76.62 127.13 L76.94 111.25 L77.25 97.38 L77.56 85.27 L77.87 74.71 L78.18 65.53 L78.5 57.56 L78.81 50.66 L79.12 44.7 L79.43 39.57 L79.74 35.17 L80.06 31.42 L80.37 28.23 L80.68 25.55 L80.99 23.3 L81.62 19.93 L82.24 17.77 L82.86 16.54 L83.8 16 L85.36 16.39 L86.92 17.46 L88.48 19.17 L90.04 21.45 L91.6 24.26 L93.47 28.27 L95.03 32.07 L96.9 37.13 L100.02 46.56 L103.46 58.01 L106.89 70.2 L116.25 104.34 L121.24 121.62 L124.05 130.71 L126.54 138.34 L129.04 145.48 L131.54 152.11 L133.72 157.47 L135.9 162.41 L138.09 166.92 L140.27 171 L142.46 174.66 L144.64 177.89 L149.01 183.14 L151.19 185.18 L153.69 187.07 L156.18 188.51 L158.68 189.53 L163.67 190.43 L169.29 189.95 L173.97 188.58 L179.58 186.13 L202.98 172.75 L208.91 169.79 L214.84 167.28 L223.26 164.6 L231.69 162.92 L232 166 L232.31 153.57 L232.62 142.68 L232.94 133.15 L233.25 124.83 L233.56 117.56 L233.87 111.23 L234.18 105.72 L234.5 100.94 L234.81 96.8 L235.12 93.22 L235.43 90.14 L235.74 87.5 L236.37 83.34 L236.99 80.38 L237.62 78.36 L238.24 77.06 L238.86 76.33 L239.8 76 L241.36 76.24 L242.92 76.88 L246.04 79.27 L249.47 83.36 L252.9 88.68 L256.02 94.33 L259.46 101.21 L272.25 129.01 L277.24 139.37 L282.54 149.4 L287.54 157.67 L291.9 163.85 L296.27 169 L300.64 173.13 L305.01 176.28 L309.69 178.64 L314.68 180.12 L319.67 180.66 L325.29 180.37 L329.97 179.55 L335.58 178.08 L358.98 170.05 L370.84 166.77 L379.26 165.16 L387.69 164.15 L388 166 L388.31 153.57 L388.62 142.68 L388.94 133.15 L389.25 124.83 L389.56 117.56 L389.87 111.23 L390.18 105.72 L390.5 100.94 L390.81 96.8 L391.12 93.22 L391.43 90.14 L391.74 87.5 L392.37 83.34 L392.99 80.38 L393.62 78.36 L394.24 77.06 L394.86 76.33 L395.8 76 L397.36 76.24 L398.92 76.88 L402.04 79.27 L405.47 83.36 L408.9 88.68 L412.02 94.33 L415.46 101.21 L428.25 129.01 L433.24 139.37 L438.54 149.4 L443.54 157.67 L447.9 163.85 L452.27 169 L456.64 173.13 L461.01 176.28 L465.69 178.64 L470.68 180.12 L475.67 180.66 L481.29 180.37 L485.97 179.55 L491.58 178.08 L514.98 170.05 L526.84 166.77 L535.26 165.16 L543.69 164.15 L544 166 L544.31 153.57 L544.62 142.68 L544.94 133.15 L545.25 124.83 L545.56 117.56 L545.87 111.23 L546.18 105.72 L546.5 100.94 L546.81 96.8 L547.12 93.22 L547.43 90.14 L547.74 87.5 L548.37 83.34 L548.99 80.38 L549.62 78.36 L550.24 77.06 L550.86 76.33 L551.8 76 L553.36 76.24 L554.92 76.88 L558.04 79.27 L561.47 83.36 L564.9 88.68 L568.02 94.33 L571.46 101.21 L584.25 129.01 L589.24 139.37 L594.54 149.4 L599.54 157.67 L603.9 163.85 L608.27 169 L612.64 173.13 L617.32 176.47 L622 178.76 L626.99 180.17 L632.3 180.67 L638.22 180.24 L648.21 177.89 L669.11 170.66 L679.1 167.69 L689.39 165.46 L700 164.13"/>
</svg>
