<svg xmlns="http://www.w3.org/2000/svg" viewBox="0 0 771.91 434.2" role="img" font-family="system-ui, sans-serif">
<g transform="translate(0.0 0)">
<rect width="771.91" height="434.2" fill="#111318"/>
<text x="61.7528" y="39.077999999999996" fill="#F5F7FA" font-size="26.052">Destino e navegação</text>
<rect x="61.75" y="69.47" width="648.41" height="34.2" rx="8" fill="#3E444D"/>
<text x="77.14" y="91.358" fill="#F5F7FA" font-size="15.87">Casa</text>
<rect x="61.75" y="114.02" width="648.41" height="34.2" rx="8" fill="#3E444D"/>
<text x="77.14" y="135.908" fill="#F5F7FA" font-size="15.87">Trabalho</text>
<rect x="61.75" y="158.57" width="648.41" height="34.2" rx="8" fill="#3E444D"/>
<text x="77.14" y="180.458" fill="#F5F7FA" font-size="15.87">Locais salvos</text>
<rect x="61.75" y="203.12" width="648.41" height="34.2" rx="8" fill="#3E444D"/>
<text x="77.14" y="225.008" fill="#F5F7FA" font-size="15.87">Recentes</text>
<rect x="61.75" y="247.67" width="648.41" height="34.2" rx="8" fill="#3E444D"/>
<text x="77.14" y="269.558" fill="#F5F7FA" font-size="15.87">Posto de combustível próximo</text>
<rect x="61.75" y="292.22" width="648.41" height="34.2" rx="8" fill="#3E444D"/>
<text x="77.14" y="314.108" fill="#F5F7FA" font-size="15.87">Loja próxima</text>
<rect x="61.75" y="336.77" width="648.41" height="34.2" rx="8" fill="#3E444D"/>
<text x="77.14" y="358.65799999999996" fill="#F5F7FA" font-size="15.87">Estacionamento próximo</text>
<rect x="61.75" y="386.44" width="154.34" height="34.2" rx="8" fill="#3E444D"/>
<text x="138.92000000000002" y="407.986" text-anchor="middle" fill="#F5F7FA" font-size="15.87">Início</text>
<rect x="226.44" y="386.44" width="154.34" height="34.2" rx="8" fill="#3E444D"/>
<text x="303.61" y="407.986" text-anchor="middle" fill="#F5F7FA" font-size="15.87">Voltar</text>
<rect x="391.13" y="386.44" width="154.34" height="34.2" rx="8" fill="#3E444D"/>
<text x="468.3" y="407.986" text-anchor="middle" fill="#F5F7FA" font-size="15.87">Volume</text>
<rect x="555.82" y="386.44" width="154.34" height="34.2" rx="8" fill="#3E444D"/>
<text x="632.99" y="407.986" text-anchor="middle" fill="#F5F7FA" font-size="15.87">Navegação</text>
</g>
</svg>
