<svg xmlns="http://www.w3.org/2000/svg" viewBox="0 0 771.91 434.2" role="img" font-family="system-ui, sans-serif">
<g transform="translate(0.0 0)">
<rect width="771.91" height="434.2" fill="#111318"/>
<text x="61.7528" y="39.077999999999996" fill="#F5F7FA" font-size="26.052">Celo kaj navigado</text>
<rect x="61.75" y="69.47" width="648.41" height="42.75" rx="8" fill="#3E444D"/><text x="80.9875" y="96.83" fill="#F5F7FA" font-size="15.87" letter-spacing="0.0700em">Hejmo</text>
<rect x="61.75" y="122.57" width="648.41" height="42.75" rx="8" fill="#3E444D"/><text x="80.9875" y="149.93" fill="#F5F7FA" font-size="15.87" letter-spacing="0.0700em">Laborejo</text>
<rect x="61.75" y="175.67" width="648.41" height="42.75" rx="8" fill="#3E444D"/><text x="80.9875" y="203.02999999999997" fill="#F5F7FA" font-size="15.87" letter-spacing="0.0700em">Konservitaj lokoj</text>
<rect x="61.75" y="228.77" width="648.41" height="42.75" rx="8" fill="#3E444D"/><text x="80.9875" y="256.13" fill="#F5F7FA" font-size="15.87" letter-spacing="0.0700em">Lastaj celoj</text>
<rect x="61.75" y="386.44" width="154.34" height="42.75" rx="8" fill="#3E444D"/><text x="138.92000000000002" y="413.3725" text-anchor="middle" fill="#F5F7FA" font-size="15.87" letter-spacing="0.0700em">Ĉefekrano</text>
<rect x="226.44" y="386.44" width="154.34" height="42.75" rx="8" fill="#3E444D"/><text x="303.61" y="413.3725" text-anchor="middle" fill="#F5F7FA" font-size="15.87" letter-spacing="0.0700em">Reen</text>
<rect x="391.13" y="386.44" width="154.34" height="42.75" rx="8" fill="#3E444D"/><text x="468.3" y="413.3725" text-anchor="middle" fill="#F5F7FA" font-size="15.87" letter-spacing="0.0700em">Laŭteco</text>
<rect x="555.82" y="386.44" width="154.34" height="42.75" rx="8" fill="#3E444D"/><text x="632.99" y="413.3725" text-anchor="middle" fill="#F5F7FA" font-size="15.87" letter-spacing="0.0700em">Navigado</text>
</g>
</svg>
